<?xml version="1.0" encoding="UTF-8" standalone="no"?>
<!DOCTYPE svg PUBLIC "-//W3C//DTD SVG 1.1//EN"
 "http://www.w3.org/Graphics/SVG/1.1/DTD/svg11.dtd">
<!-- Generated by graphviz version 2.43.0 (0)
 -->
<!-- Title: G Pages: 1 -->
<svg width="1892pt" height="843pt"
 viewBox="0.00 0.00 1892.00 843.00" xmlns="http://www.w3.org/2000/svg" xmlns:xlink="http://www.w3.org/1999/xlink">
<g id="graph0" class="graph" transform="scale(1 1) rotate(0) translate(4 839)">
<title>G</title>
<polygon fill="white" stroke="transparent" points="-4,4 -4,-839 1888,-839 1888,4 -4,4"/>
<g id="clust1" class="cluster">
<title>cluster_A</title>
<path fill="none" stroke="black" d="M20,-145C20,-145 1864,-145 1864,-145 1870,-145 1876,-151 1876,-157 1876,-157 1876,-815 1876,-815 1876,-821 1870,-827 1864,-827 1864,-827 20,-827 20,-827 14,-827 8,-821 8,-815 8,-815 8,-157 8,-157 8,-151 14,-145 20,-145"/>
<text text-anchor="middle" x="942" y="-811.8" font-family="Times,serif" font-size="14.00">Application</text>
</g>
<g id="clust2" class="cluster">
<title>cluster_K</title>
<path fill="none" stroke="black" d="M228,-398C228,-398 1856,-398 1856,-398 1862,-398 1868,-404 1868,-410 1868,-410 1868,-784 1868,-784 1868,-790 1862,-796 1856,-796 1856,-796 228,-796 228,-796 222,-796 216,-790 216,-784 216,-784 216,-410 216,-410 216,-404 222,-398 228,-398"/>
<text text-anchor="middle" x="1042" y="-780.8" font-family="Times,serif" font-size="14.00">Kernel</text>
</g>
<g id="clust3" class="cluster">
<title>cluster_C</title>
<path fill="none" stroke="black" d="M776,-552C776,-552 1596,-552 1596,-552 1602,-552 1608,-558 1608,-564 1608,-564 1608,-616 1608,-616 1608,-622 1602,-628 1596,-628 1596,-628 776,-628 776,-628 770,-628 764,-622 764,-616 764,-616 764,-564 764,-564 764,-558 770,-552 776,-552"/>
<text text-anchor="middle" x="1186" y="-612.8" font-family="Times,serif" font-size="14.00">Configuration</text>
</g>
<g id="clust4" class="cluster">
<title>cluster_D</title>
<path fill="none" stroke="black" d="M236,-571C236,-571 642,-571 642,-571 648,-571 654,-577 654,-583 654,-583 654,-688 654,-688 654,-694 648,-700 642,-700 642,-700 236,-700 236,-700 230,-700 224,-694 224,-688 224,-688 224,-583 224,-583 224,-577 230,-571 236,-571"/>
<text text-anchor="middle" x="439" y="-684.8" font-family="Times,serif" font-size="14.00">Device Control</text>
</g>
<g id="clust5" class="cluster">
<title>cluster_G</title>
<path fill="none" stroke="black" d="M488,-458C488,-458 912,-458 912,-458 918,-458 924,-464 924,-470 924,-470 924,-521 924,-521 924,-527 918,-533 912,-533 912,-533 488,-533 488,-533 482,-533 476,-527 476,-521 476,-521 476,-470 476,-470 476,-464 482,-458 488,-458"/>
<text text-anchor="middle" x="700" y="-517.8" font-family="Times,serif" font-size="14.00">Graphics</text>
</g>
<g id="clust6" class="cluster">
<title>cluster_L</title>
<path fill="none" stroke="black" d="M1460,-636C1460,-636 1848,-636 1848,-636 1854,-636 1860,-642 1860,-648 1860,-648 1860,-753 1860,-753 1860,-759 1854,-765 1848,-765 1848,-765 1460,-765 1460,-765 1454,-765 1448,-759 1448,-753 1448,-753 1448,-648 1448,-648 1448,-642 1454,-636 1460,-636"/>
<text text-anchor="middle" x="1654" y="-749.8" font-family="Times,serif" font-size="14.00">Logging</text>
</g>
<g id="clust7" class="cluster">
<title>cluster_R</title>
<path fill="none" stroke="black" d="M1244,-469C1244,-469 1344,-469 1344,-469 1350,-469 1356,-475 1356,-481 1356,-481 1356,-532 1356,-532 1356,-538 1350,-544 1344,-544 1344,-544 1244,-544 1244,-544 1238,-544 1232,-538 1232,-532 1232,-532 1232,-481 1232,-481 1232,-475 1238,-469 1244,-469"/>
<text text-anchor="middle" x="1294" y="-528.8" font-family="Times,serif" font-size="14.00">RPC</text>
</g>
<g id="clust8" class="cluster">
<title>cluster_M</title>
<path fill="none" stroke="black" d="M1460,-153C1460,-153 1596,-153 1596,-153 1602,-153 1608,-159 1608,-165 1608,-165 1608,-378 1608,-378 1608,-384 1602,-390 1596,-390 1596,-390 1460,-390 1460,-390 1454,-390 1448,-384 1448,-378 1448,-378 1448,-165 1448,-165 1448,-159 1454,-153 1460,-153"/>
<text text-anchor="middle" x="1528" y="-374.8" font-family="Times,serif" font-size="14.00">Plugin Modules</text>
</g>
<g id="clust9" class="cluster">
<title>cluster_Dev</title>
<path fill="none" stroke="black" d="M524,-8C524,-8 624,-8 624,-8 630,-8 636,-14 636,-20 636,-20 636,-125 636,-125 636,-131 630,-137 624,-137 624,-137 524,-137 524,-137 518,-137 512,-131 512,-125 512,-125 512,-20 512,-20 512,-14 518,-8 524,-8"/>
<text text-anchor="middle" x="574" y="-121.8" font-family="Times,serif" font-size="14.00">Devices</text>
</g>
<!-- …/dex -->
<g id="node1" class="node">
<title>…/dex</title>
<g id="a_node1"><a xlink:href="https://pkg.go.dev/…/dex" xlink:title="…/dex\l248 / 7.2KB\l" target="_graphviz">
<polygon fill="none" stroke="#079122" stroke-width="2" stroke-opacity="0.698039" points="124,-727 16,-727 16,-691 124,-691 124,-727"/>
<text text-anchor="start" x="24" y="-712" font-family="Times,serif" font-size="10.00">…/dex</text>
<text text-anchor="start" x="24" y="-701" font-family="Times,serif" font-size="10.00">248 / 7.2KB</text>
</a>
</g>
</g>
<!-- …/dex/config -->
<g id="node2" class="node">
<title>…/dex/config</title>
<g id="a_node2"><a xlink:href="https://pkg.go.dev/…/dex/config" xlink:title="…/dex/config\l298 / 9.2KB\l" target="_graphviz">
<polygon fill="none" stroke="#915507" stroke-width="2" stroke-opacity="0.698039" points="1132,-596 1024,-596 1024,-560 1132,-560 1132,-596"/>
<text text-anchor="start" x="1032" y="-581" font-family="Times,serif" font-size="10.00">…/dex/config</text>
<text text-anchor="start" x="1032" y="-570" font-family="Times,serif" font-size="10.00">298 / 9.2KB</text>
</a>
</g>
</g>
<!-- …/dex&#45;&gt;…/dex/config -->
<g id="edge7" class="edge">
<title>…/dex:e&#45;&gt;…/dex/config</title>
<path fill="none" stroke="#915507" stroke-width="2" stroke-opacity="0.698039" d="M124,-709C199.2,-709 159.8,-616.96 216,-567 312.26,-481.43 350.55,-468.21 476,-439 670.03,-393.83 738.21,-382.08 924,-454 978.15,-474.96 1027.79,-522.68 1055.07,-552.43"/>
<polygon fill="#915507" fill-opacity="0.698039" stroke="#915507" stroke-width="2" stroke-opacity="0.698039" points="1052.54,-554.86 1061.83,-559.95 1057.74,-550.17 1052.54,-554.86"/>
</g>
<!-- …/dex/internal/config -->
<g id="node3" class="node">
<title>…/dex/internal/config</title>
<g id="a_node3"><a xlink:href="https://pkg.go.dev/…/dex/internal/config" xlink:title="…/dex/internal/config\l859 / 23.9KB\l" target="_graphviz">
<polygon fill="none" stroke="#7e0791" stroke-width="2" stroke-opacity="0.698039" points="916,-597 772,-597 772,-561 916,-561 916,-597"/>
<text text-anchor="start" x="780" y="-582" font-family="Times,serif" font-size="10.00">…/dex/internal/config</text>
<text text-anchor="start" x="780" y="-571" font-family="Times,serif" font-size="10.00">859 / 23.9KB</text>
</a>
</g>
</g>
<!-- …/dex&#45;&gt;…/dex/internal/config -->
<g id="edge8" class="edge">
<title>…/dex:e&#45;&gt;…/dex/internal/config</title>
<path fill="none" stroke="#7e0791" stroke-width="2" stroke-opacity="0.698039" d="M124,-709C244.01,-709 553.69,-751.25 664,-704 719.79,-680.1 710.29,-637.95 762.99,-602.34"/>
<polygon fill="#7e0791" fill-opacity="0.698039" stroke="#7e0791" stroke-width="2" stroke-opacity="0.698039" points="765.02,-605.2 771.61,-596.91 761.29,-599.28 765.02,-605.2"/>
</g>
<!-- …/dex/internal/xdg -->
<g id="node4" class="node">
<title>…/dex/internal/xdg</title>
<g id="a_node4"><a xlink:href="https://pkg.go.dev/…/dex/internal/xdg" xlink:title="…/dex/internal/xdg\l155 / 5.5KB\l" target="_graphviz">
<polygon fill="none" stroke="#3f9107" stroke-width="2" stroke-opacity="0.698039" points="1600,-596 1456,-596 1456,-560 1600,-560 1600,-596"/>
<text text-anchor="start" x="1464" y="-581" font-family="Times,serif" font-size="10.00">…/dex/internal/xdg</text>
<text text-anchor="start" x="1464" y="-570" font-family="Times,serif" font-size="10.00">155 / 5.5KB</text>
</a>
</g>
</g>
<!-- …/dex&#45;&gt;…/dex/internal/xdg -->
<g id="edge14" class="edge">
<title>…/dex:e&#45;&gt;…/dex/internal/xdg</title>
<path fill="none" stroke="#3f9107" stroke-width="2" stroke-opacity="0.698039" d="M124,-709C166.26,-709 174.27,-726.34 216,-733 372.98,-758.07 414.03,-755 573,-755 573,-755 573,-755 1079,-755 1202.13,-755 1245.85,-805.03 1356,-750 1415.49,-720.28 1399.53,-677.53 1448,-632 1459.82,-620.9 1474.11,-610.41 1487.27,-601.68"/>
<polygon fill="#3f9107" fill-opacity="0.698039" stroke="#3f9107" stroke-width="2" stroke-opacity="0.698039" points="1489.23,-604.59 1495.72,-596.21 1485.43,-598.71 1489.23,-604.59"/>
</g>
<!-- …/dex/internal/device -->
<g id="node5" class="node">
<title>…/dex/internal/device</title>
<g id="a_node5"><a xlink:href="https://pkg.go.dev/…/dex/internal/device" xlink:title="…/dex/internal/device\l2414 / 70.7KB\l" target="_graphviz">
<polygon fill="none" stroke="#910717" stroke-width="2" stroke-opacity="0.698039" points="376,-669 232,-669 232,-633 376,-633 376,-669"/>
<text text-anchor="start" x="240" y="-654" font-family="Times,serif" font-size="10.00">…/dex/internal/device</text>
<text text-anchor="start" x="240" y="-643" font-family="Times,serif" font-size="10.00">2414 / 70.7KB</text>
</a>
</g>
</g>
<!-- …/dex&#45;&gt;…/dex/internal/device -->
<g id="edge9" class="edge">
<title>…/dex:e&#45;&gt;…/dex/internal/device</title>
<path fill="none" stroke="#910717" stroke-width="2" stroke-opacity="0.698039" d="M124,-709C167.91,-709 174.19,-686.41 216,-673 217.89,-672.39 219.81,-671.79 221.75,-671.2"/>
<polygon fill="#910717" fill-opacity="0.698039" stroke="#910717" stroke-width="2" stroke-opacity="0.698039" points="222.98,-674.48 231.58,-668.29 220.99,-667.77 222.98,-674.48"/>
</g>
<!-- …/dex/internal/state -->
<g id="node6" class="node">
<title>…/dex/internal/state</title>
<g id="a_node6"><a xlink:href="https://pkg.go.dev/…/dex/internal/state" xlink:title="…/dex/internal/state\l487 / 13.8KB\l" target="_graphviz">
<polygon fill="none" stroke="#916907" stroke-width="2" stroke-opacity="0.698039" points="376,-615 232,-615 232,-579 376,-579 376,-615"/>
<text text-anchor="start" x="240" y="-600" font-family="Times,serif" font-size="10.00">…/dex/internal/state</text>
<text text-anchor="start" x="240" y="-589" font-family="Times,serif" font-size="10.00">487 / 13.8KB</text>
</a>
</g>
</g>
<!-- …/dex&#45;&gt;…/dex/internal/state -->
<g id="edge11" class="edge">
<title>…/dex:e&#45;&gt;…/dex/internal/state</title>
<path fill="none" stroke="#916907" stroke-width="2" stroke-opacity="0.698039" d="M124,-709C179.67,-709 167.78,-651.82 216,-624 218.88,-622.34 221.87,-620.77 224.93,-619.29"/>
<polygon fill="#916907" fill-opacity="0.698039" stroke="#916907" stroke-width="2" stroke-opacity="0.698039" points="226.61,-622.37 234.32,-615.1 223.76,-615.98 226.61,-622.37"/>
</g>
<!-- …/dex/internal/sys -->
<g id="node7" class="node">
<title>…/dex/internal/sys</title>
<g id="a_node7"><a xlink:href="https://pkg.go.dev/…/dex/internal/sys" xlink:title="…/dex/internal/sys\l978 / 30.7KB\l" target="_graphviz">
<polygon fill="none" stroke="#639107" stroke-width="2" stroke-opacity="0.698039" points="646,-669 502,-669 502,-633 646,-633 646,-669"/>
<text text-anchor="start" x="510" y="-654" font-family="Times,serif" font-size="10.00">…/dex/internal/sys</text>
<text text-anchor="start" x="510" y="-643" font-family="Times,serif" font-size="10.00">978 / 30.7KB</text>
</a>
</g>
</g>
<!-- …/dex&#45;&gt;…/dex/internal/sys -->
<g id="edge12" class="edge">
<title>…/dex:e&#45;&gt;…/dex/internal/sys</title>
<path fill="none" stroke="#639107" stroke-width="2" stroke-opacity="0.698039" d="M124,-709C193.74,-709 382.55,-681.13 491.84,-664.03"/>
<polygon fill="#639107" fill-opacity="0.698039" stroke="#639107" stroke-width="2" stroke-opacity="0.698039" points="492.5,-667.47 501.84,-662.46 491.41,-660.55 492.5,-667.47"/>
</g>
<!-- …/dex/internal/slogext -->
<g id="node11" class="node">
<title>…/dex/internal/slogext</title>
<g id="a_node11"><a xlink:href="https://pkg.go.dev/…/dex/internal/slogext" xlink:title="…/dex/internal/slogext\l265 / 8.2KB\l" target="_graphviz">
<polygon fill="none" stroke="#079174" stroke-width="2" stroke-opacity="0.698039" points="1600,-680 1456,-680 1456,-644 1600,-644 1600,-680"/>
<text text-anchor="start" x="1464" y="-665" font-family="Times,serif" font-size="10.00">…/dex/internal/slogext</text>
<text text-anchor="start" x="1464" y="-654" font-family="Times,serif" font-size="10.00">265 / 8.2KB</text>
</a>
</g>
</g>
<!-- …/dex&#45;&gt;…/dex/internal/slogext -->
<g id="edge10" class="edge">
<title>…/dex:e&#45;&gt;…/dex/internal/slogext</title>
<path fill="none" stroke="#079174" stroke-width="2" stroke-opacity="0.698039" d="M124,-709C170.75,-709 170.99,-747.35 216,-760 292.44,-781.49 493.6,-775 573,-775 573,-775 573,-775 1079,-775 1202.13,-775 1241.2,-814.52 1356,-770 1406.79,-750.3 1400.88,-716.33 1448,-689 1450.82,-687.36 1453.76,-685.81 1456.76,-684.33"/>
<polygon fill="#079174" fill-opacity="0.698039" stroke="#079174" stroke-width="2" stroke-opacity="0.698039" points="1458.32,-687.46 1465.96,-680.12 1455.41,-681.1 1458.32,-687.46"/>
</g>
<!-- …/dex/internal/version -->
<g id="node12" class="node">
<title>…/dex/internal/version</title>
<g id="a_node12"><a xlink:href="https://pkg.go.dev/…/dex/internal/version" xlink:title="…/dex/internal/version\l47 / 1.1KB\l" target="_graphviz">
<polygon fill="none" stroke="#910745" stroke-width="2" stroke-opacity="0.698039" points="1600,-734 1456,-734 1456,-698 1600,-698 1600,-734"/>
<text text-anchor="start" x="1464" y="-719" font-family="Times,serif" font-size="10.00">…/dex/internal/version</text>
<text text-anchor="start" x="1464" y="-708" font-family="Times,serif" font-size="10.00">47 / 1.1KB</text>
</a>
</g>
</g>
<!-- …/dex&#45;&gt;…/dex/internal/version -->
<g id="edge13" class="edge">
<title>…/dex:e&#45;&gt;…/dex/internal/version</title>
<path fill="none" stroke="#910745" stroke-width="2" stroke-opacity="0.698039" d="M124,-709C175.65,-709 167.48,-762.31 216,-780 365.2,-834.4 414.19,-795 573,-795 573,-795 573,-795 1079,-795 1202.13,-795 1235.66,-816.06 1356,-790 1402.82,-779.86 1452.69,-756.69 1486.41,-738.96"/>
<polygon fill="#910745" fill-opacity="0.698039" stroke="#910745" stroke-width="2" stroke-opacity="0.698039" points="1488.31,-741.92 1495.48,-734.12 1485.01,-735.74 1488.31,-741.92"/>
</g>
<!-- …/dex/rpc -->
<g id="node13" class="node">
<title>…/dex/rpc</title>
<g id="a_node13"><a xlink:href="https://pkg.go.dev/…/dex/rpc" xlink:title="…/dex/rpc\l986 / 31.3KB\l" target="_graphviz">
<polygon fill="none" stroke="#079109" stroke-width="2" stroke-opacity="0.698039" points="1348,-513 1240,-513 1240,-477 1348,-477 1348,-513"/>
<text text-anchor="start" x="1248" y="-498" font-family="Times,serif" font-size="10.00">…/dex/rpc</text>
<text text-anchor="start" x="1248" y="-487" font-family="Times,serif" font-size="10.00">986 / 31.3KB</text>
</a>
</g>
</g>
<!-- …/dex&#45;&gt;…/dex/rpc -->
<g id="edge15" class="edge">
<title>…/dex:e&#45;&gt;…/dex/rpc</title>
<path fill="none" stroke="#079109" stroke-width="2" stroke-opacity="0.698039" d="M124,-709C165.36,-709 174.82,-719.19 216,-723 374.08,-737.63 414.24,-735 573,-735 573,-735 573,-735 845,-735 980.52,-735 1020.13,-708.5 1132,-632 1185.29,-595.56 1177.08,-558.89 1231.43,-518.22"/>
<polygon fill="#079109" fill-opacity="0.698039" stroke="#079109" stroke-width="2" stroke-opacity="0.698039" points="1233.79,-520.84 1239.91,-512.19 1229.73,-515.13 1233.79,-520.84"/>
</g>
<!-- …/dex/config&#45;&gt;…/dex/rpc -->
<g id="edge16" class="edge">
<title>…/dex/config:e&#45;&gt;…/dex/rpc</title>
<path fill="none" stroke="#079109" stroke-width="2" stroke-opacity="0.698039" d="M1132,-578C1183.45,-578 1234.9,-544.1 1265.33,-519.63"/>
<polygon fill="#079109" fill-opacity="0.698039" stroke="#079109" stroke-width="2" stroke-opacity="0.698039" points="1267.86,-522.08 1273.34,-513.01 1263.4,-516.68 1267.86,-522.08"/>
</g>
<!-- …/dex/internal/config&#45;&gt;…/dex/config -->
<g id="edge18" class="edge">
<title>…/dex/internal/config:e&#45;&gt;…/dex/config</title>
<path fill="none" stroke="#915507" stroke-width="2" stroke-opacity="0.698039" d="M917,-579C948.81,-579 984.17,-578.8 1013.54,-578.58"/>
<polygon fill="#915507" fill-opacity="0.698039" stroke="#915507" stroke-width="2" stroke-opacity="0.698039" points="1013.69,-582.08 1023.67,-578.5 1013.64,-575.08 1013.69,-582.08"/>
</g>
<!-- …/dex/internal/private -->
<g id="node10" class="node">
<title>…/dex/internal/private</title>
<g id="a_node10"><a xlink:href="https://pkg.go.dev/…/dex/internal/private" xlink:title="…/dex/internal/private\l222 / 5.6KB\l" target="_graphviz">
<polygon fill="none" stroke="#6f9107" stroke-width="2" stroke-opacity="0.698039" points="1852,-680 1708,-680 1708,-644 1852,-644 1852,-680"/>
<text text-anchor="start" x="1716" y="-665" font-family="Times,serif" font-size="10.00">…/dex/internal/private</text>
<text text-anchor="start" x="1716" y="-654" font-family="Times,serif" font-size="10.00">222 / 5.6KB</text>
</a>
</g>
</g>
<!-- …/dex/internal/config&#45;&gt;…/dex/internal/private -->
<g id="edge19" class="edge">
<title>…/dex/internal/config:e&#45;&gt;…/dex/internal/private</title>
<path fill="none" stroke="#6f9107" stroke-width="2" stroke-opacity="0.698039" d="M917,-579C965.94,-579 975.57,-597.94 1024,-605 1281.18,-642.51 1349.51,-608.03 1608,-635 1637.29,-638.06 1669.2,-642.73 1697.44,-647.33"/>
<polygon fill="#6f9107" fill-opacity="0.698039" stroke="#6f9107" stroke-width="2" stroke-opacity="0.698039" points="1697.23,-650.84 1707.67,-649.02 1698.37,-643.94 1697.23,-650.84"/>
</g>
<!-- …/dex/internal/config&#45;&gt;…/dex/internal/slogext -->
<g id="edge20" class="edge">
<title>…/dex/internal/config:e&#45;&gt;…/dex/internal/slogext</title>
<path fill="none" stroke="#079174" stroke-width="2" stroke-opacity="0.698039" d="M917,-579C967.93,-579 974.35,-608.66 1024,-620 1169.98,-653.35 1345.2,-660.89 1445.57,-662.22"/>
<polygon fill="#079174" fill-opacity="0.698039" stroke="#079174" stroke-width="2" stroke-opacity="0.698039" points="1445.6,-665.72 1455.64,-662.34 1445.68,-658.72 1445.6,-665.72"/>
</g>
<!-- …/dex/internal/config&#45;&gt;…/dex/rpc -->
<g id="edge21" class="edge">
<title>…/dex/internal/config:e&#45;&gt;…/dex/rpc</title>
<path fill="none" stroke="#079109" stroke-width="2" stroke-opacity="0.698039" d="M917,-579C966.16,-579 976.14,-562.24 1024,-551 1094.28,-534.5 1175.47,-517.94 1230.11,-507.15"/>
<polygon fill="#079109" fill-opacity="0.698039" stroke="#079109" stroke-width="2" stroke-opacity="0.698039" points="1230.86,-510.57 1240,-505.21 1229.51,-503.71 1230.86,-510.57"/>
</g>
<!-- …/dex/internal/device&#45;&gt;…/dex/internal/config -->
<g id="edge23" class="edge">
<title>…/dex/internal/device:e&#45;&gt;…/dex/internal/config</title>
<path fill="none" stroke="#7e0791" stroke-width="2" stroke-opacity="0.698039" d="M376,-651C424.21,-651 429.17,-620.44 476,-609 572.23,-585.49 686.44,-579.45 761.59,-578.34"/>
<polygon fill="#7e0791" fill-opacity="0.698039" stroke="#7e0791" stroke-width="2" stroke-opacity="0.698039" points="761.97,-581.84 771.93,-578.22 761.89,-574.84 761.97,-581.84"/>
</g>
<!-- …/dex/internal/device&#45;&gt;…/dex/internal/sys -->
<g id="edge25" class="edge">
<title>…/dex/internal/device:e&#45;&gt;…/dex/internal/sys</title>
<path fill="none" stroke="#639107" stroke-width="2" stroke-opacity="0.698039" d="M376,-651C413.98,-651 456.07,-651 491.57,-651"/>
<polygon fill="#639107" fill-opacity="0.698039" stroke="#639107" stroke-width="2" stroke-opacity="0.698039" points="491.88,-654.5 501.88,-651 491.88,-647.5 491.88,-654.5"/>
</g>
<!-- …/dex/internal/animation -->
<g id="node8" class="node">
<title>…/dex/internal/animation</title>
<g id="a_node8"><a xlink:href="https://pkg.go.dev/…/dex/internal/animation" xlink:title="…/dex/internal/animation\l564 / 15.4KB\l" target="_graphviz">
<polygon fill="none" stroke="#079165" stroke-width="2" stroke-opacity="0.698039" points="664,-502 484,-502 484,-466 664,-466 664,-502"/>
<text text-anchor="start" x="492" y="-487" font-family="Times,serif" font-size="10.00">…/dex/internal/animation</text>
<text text-anchor="start" x="492" y="-476" font-family="Times,serif" font-size="10.00">564 / 15.4KB</text>
</a>
</g>
</g>
<!-- …/dex/internal/device&#45;&gt;…/dex/internal/animation -->
<g id="edge22" class="edge">
<title>…/dex/internal/device:e&#45;&gt;…/dex/internal/animation</title>
<path fill="none" stroke="#079165" stroke-width="2" stroke-opacity="0.698039" d="M376,-651C377.36,-651 489.29,-555.53 543.8,-508.96"/>
<polygon fill="#079165" fill-opacity="0.698039" stroke="#079165" stroke-width="2" stroke-opacity="0.698039" points="546.39,-511.35 551.72,-502.19 541.85,-506.02 546.39,-511.35"/>
</g>
<!-- …/dex/internal/text -->
<g id="node9" class="node">
<title>…/dex/internal/text</title>
<g id="a_node9"><a xlink:href="https://pkg.go.dev/…/dex/internal/text" xlink:title="…/dex/internal/text\l193 / 5.2KB\l" target="_graphviz">
<polygon fill="none" stroke="#912207" stroke-width="2" stroke-opacity="0.698039" points="916,-502 772,-502 772,-466 916,-466 916,-502"/>
<text text-anchor="start" x="780" y="-487" font-family="Times,serif" font-size="10.00">…/dex/internal/text</text>
<text text-anchor="start" x="780" y="-476" font-family="Times,serif" font-size="10.00">193 / 5.2KB</text>
</a>
</g>
</g>
<!-- …/dex/internal/device&#45;&gt;…/dex/internal/text -->
<g id="edge26" class="edge">
<title>…/dex/internal/device:e&#45;&gt;…/dex/internal/text</title>
<path fill="none" stroke="#912207" stroke-width="2" stroke-opacity="0.698039" d="M376,-651C473,-651 393.17,-507.49 476,-457 522.32,-428.77 668.67,-449.87 761.96,-467.28"/>
<polygon fill="#912207" fill-opacity="0.698039" stroke="#912207" stroke-width="2" stroke-opacity="0.698039" points="761.47,-470.75 771.94,-469.16 762.77,-463.87 761.47,-470.75"/>
</g>
<!-- …/dex/internal/device&#45;&gt;…/dex/internal/slogext -->
<g id="edge24" class="edge">
<title>…/dex/internal/device:e&#45;&gt;…/dex/internal/slogext</title>
<path fill="none" stroke="#079174" stroke-width="2" stroke-opacity="0.698039" d="M376,-651C422.04,-651 430.36,-630.05 476,-624 558.83,-613.01 580.51,-620.67 664,-624 708.55,-625.78 719.49,-629.35 764,-632 1012.2,-646.8 1306.27,-656.02 1445.77,-659.89"/>
<polygon fill="#079174" fill-opacity="0.698039" stroke="#079174" stroke-width="2" stroke-opacity="0.698039" points="1445.86,-663.39 1455.95,-660.17 1446.05,-656.39 1445.86,-663.39"/>
</g>
<!-- …/dex/internal/device&#45;&gt;…/dex/rpc -->
<g id="edge27" class="edge">
<title>…/dex/internal/device:e&#45;&gt;…/dex/rpc</title>
<path fill="none" stroke="#079109" stroke-width="2" stroke-opacity="0.698039" d="M376,-651C480.18,-651 388.01,-494.78 476,-439 600.66,-359.97 1060.55,-445.98 1229.88,-481.3"/>
<polygon fill="#079109" fill-opacity="0.698039" stroke="#079109" stroke-width="2" stroke-opacity="0.698039" points="1229.38,-484.77 1239.89,-483.39 1230.82,-477.92 1229.38,-484.77"/>
</g>
<!-- deck -->
<g id="node18" class="node">
<title>deck</title>
<polygon fill="none" stroke="#079122" stroke-width="2" stroke-opacity="0.698039" points="628,-106 520,-106 520,-70 628,-70 628,-106"/>
<text text-anchor="middle" x="574" y="-85.5" font-family="Times,serif" font-size="10.00">Stream Deck™</text>
</g>
<!-- …/dex/internal/device&#45;&gt;deck -->
<g id="edge5" class="edge">
<title>…/dex/internal/device:e&#45;&gt;deck</title>
<path fill="none" stroke="black" stroke-width="2" stroke-dasharray="5,2" d="M383.71,-644.63C422.53,-591.49 533.59,-221.47 564.77,-116"/>
<polygon fill="black" stroke="black" stroke-width="2" points="381.48,-641.93 376,-651 385.94,-647.33 381.48,-641.93"/>
<polygon fill="black" stroke="black" stroke-width="2" points="568.22,-116.68 567.69,-106.09 561.5,-114.69 568.22,-116.68"/>
</g>
<!-- …/dex/internal/state&#45;&gt;…/dex/internal/sys -->
<g id="edge29" class="edge">
<title>…/dex/internal/state:e&#45;&gt;…/dex/internal/sys</title>
<path fill="none" stroke="#639107" stroke-width="2" stroke-opacity="0.698039" d="M376,-597C427.16,-597 483.23,-614.15 522.42,-629.12"/>
<polygon fill="#639107" fill-opacity="0.698039" stroke="#639107" stroke-width="2" stroke-opacity="0.698039" points="521.42,-632.49 532.01,-632.87 523.97,-625.97 521.42,-632.49"/>
</g>
<!-- …/dex/internal/state&#45;&gt;…/dex/rpc -->
<g id="edge30" class="edge">
<title>…/dex/internal/state:e&#45;&gt;…/dex/rpc</title>
<path fill="none" stroke="#079109" stroke-width="2" stroke-opacity="0.698039" d="M376,-597C465.58,-597 398.52,-466.96 476,-422 728.17,-275.66 847.02,-360.41 1132,-422 1176.23,-431.56 1222.92,-454.32 1254.56,-471.91"/>
<polygon fill="#079109" fill-opacity="0.698039" stroke="#079109" stroke-width="2" stroke-opacity="0.698039" points="1253.05,-475.07 1263.48,-476.95 1256.49,-468.98 1253.05,-475.07"/>
</g>
<!-- ds -->
<g id="node19" class="node">
<title>ds</title>
<polygon fill="none" stroke="#079122" stroke-width="2" stroke-opacity="0.698039" points="610,-52 538,-52 538,-16 610,-16 610,-52"/>
<text text-anchor="middle" x="574" y="-31.5" font-family="Times,serif" font-size="10.00">Data store</text>
</g>
<!-- …/dex/internal/state&#45;&gt;ds -->
<g id="edge6" class="edge">
<title>…/dex/internal/state:e&#45;&gt;ds</title>
<path fill="none" stroke="black" stroke-width="2" stroke-dasharray="5,2" d="M386.3,-596.77C609.47,-586.57 314.66,-237.03 476,-61 489.15,-46.65 509.22,-39.67 527.7,-36.37"/>
<polygon fill="black" stroke="black" stroke-width="2" points="385.92,-593.28 376,-597 386.08,-600.28 385.92,-593.28"/>
<polygon fill="black" stroke="black" stroke-width="2" points="528.36,-39.81 537.75,-34.89 527.34,-32.89 528.36,-39.81"/>
</g>
<!-- …/dex/internal/sys&#45;&gt;…/dex/internal/config -->
<g id="edge31" class="edge">
<title>…/dex/internal/sys:e&#45;&gt;…/dex/internal/config</title>
<path fill="none" stroke="#7e0791" stroke-width="2" stroke-opacity="0.698039" d="M647,-651C704.72,-651 766.47,-623.14 804.9,-602.08"/>
<polygon fill="#7e0791" fill-opacity="0.698039" stroke="#7e0791" stroke-width="2" stroke-opacity="0.698039" points="806.67,-605.11 813.68,-597.17 803.25,-599 806.67,-605.11"/>
</g>
<!-- …/dex/internal/sys&#45;&gt;…/dex/internal/private -->
<g id="edge32" class="edge">
<title>…/dex/internal/sys:e&#45;&gt;…/dex/internal/private</title>
<path fill="none" stroke="#6f9107" stroke-width="2" stroke-opacity="0.698039" d="M647,-651C699.68,-651 711.79,-662.98 764,-670 971.32,-697.89 1024,-697.81 1232,-720 1328,-730.24 1351.59,-737.88 1448,-743 1519.01,-746.77 1538.62,-758.6 1608,-743 1657.07,-731.97 1708.61,-705.16 1742.11,-685.39"/>
<polygon fill="#6f9107" fill-opacity="0.698039" stroke="#6f9107" stroke-width="2" stroke-opacity="0.698039" points="1744.29,-688.16 1751.07,-680.02 1740.69,-682.16 1744.29,-688.16"/>
</g>
<!-- …/dex/internal/sys&#45;&gt;…/dex/internal/slogext -->
<g id="edge33" class="edge">
<title>…/dex/internal/sys:e&#45;&gt;…/dex/internal/slogext</title>
<path fill="none" stroke="#079174" stroke-width="2" stroke-opacity="0.698039" d="M647,-651C962.22,-651 1040.86,-677.37 1356,-670 1385.24,-669.32 1417.27,-667.98 1445.62,-666.59"/>
<polygon fill="#079174" fill-opacity="0.698039" stroke="#079174" stroke-width="2" stroke-opacity="0.698039" points="1446.08,-670.07 1455.89,-666.07 1445.73,-663.08 1446.08,-670.07"/>
</g>
<!-- …/dex/internal/sys&#45;&gt;…/dex/internal/version -->
<g id="edge34" class="edge">
<title>…/dex/internal/sys:e&#45;&gt;…/dex/internal/version</title>
<path fill="none" stroke="#910745" stroke-width="2" stroke-opacity="0.698039" d="M647,-651C699.15,-651 711.98,-656.24 764,-660 1027.03,-679 1093.14,-678.83 1356,-700 1385.25,-702.36 1417.28,-705.27 1445.63,-707.95"/>
<polygon fill="#910745" fill-opacity="0.698039" stroke="#910745" stroke-width="2" stroke-opacity="0.698039" points="1445.61,-711.47 1455.9,-708.93 1446.28,-704.5 1445.61,-711.47"/>
</g>
<!-- …/dex/internal/sys&#45;&gt;…/dex/rpc -->
<g id="edge35" class="edge">
<title>…/dex/internal/sys:e&#45;&gt;…/dex/rpc</title>
<path fill="none" stroke="#079109" stroke-width="2" stroke-opacity="0.698039" d="M647,-651C716.28,-651 700.06,-574.67 764,-548 796.89,-534.28 888.51,-540.24 924,-537 938.98,-535.63 1128.15,-513.95 1229.64,-502.29"/>
<polygon fill="#079109" fill-opacity="0.698039" stroke="#079109" stroke-width="2" stroke-opacity="0.698039" points="1230.24,-505.74 1239.77,-501.12 1229.44,-498.79 1230.24,-505.74"/>
</g>
<!-- …/dex/internal/animation&#45;&gt;…/dex/internal/text -->
<g id="edge17" class="edge">
<title>…/dex/internal/animation:e&#45;&gt;…/dex/internal/text</title>
<path fill="none" stroke="#912207" stroke-width="2" stroke-opacity="0.698039" d="M664,-484C695.83,-484 730.84,-484 761.4,-484"/>
<polygon fill="#912207" fill-opacity="0.698039" stroke="#912207" stroke-width="2" stroke-opacity="0.698039" points="761.58,-487.5 771.58,-484 761.58,-480.5 761.58,-487.5"/>
</g>
<!-- …/dex/internal/slogext&#45;&gt;…/dex/internal/private -->
<g id="edge28" class="edge">
<title>…/dex/internal/slogext:e&#45;&gt;…/dex/internal/private</title>
<path fill="none" stroke="#6f9107" stroke-width="2" stroke-opacity="0.698039" d="M1601,-662C1632.65,-662 1667.47,-662 1697.85,-662"/>
<polygon fill="#6f9107" fill-opacity="0.698039" stroke="#6f9107" stroke-width="2" stroke-opacity="0.698039" points="1697.97,-665.5 1707.97,-662 1697.97,-658.5 1697.97,-665.5"/>
</g>
<!-- …/dex/rpc&#45;&gt;…/dex/internal/xdg -->
<g id="edge38" class="edge">
<title>…/dex/rpc:e&#45;&gt;…/dex/internal/xdg</title>
<path fill="none" stroke="#3f9107" stroke-width="2" stroke-opacity="0.698039" d="M1349,-495C1405.27,-495 1462.95,-529.49 1496.85,-554"/>
<polygon fill="#3f9107" fill-opacity="0.698039" stroke="#3f9107" stroke-width="2" stroke-opacity="0.698039" points="1494.82,-556.85 1504.94,-559.99 1498.99,-551.23 1494.82,-556.85"/>
</g>
<!-- …/dex/rpc&#45;&gt;…/dex/internal/slogext -->
<g id="edge36" class="edge">
<title>…/dex/rpc:e&#45;&gt;…/dex/internal/slogext</title>
<path fill="none" stroke="#079174" stroke-width="2" stroke-opacity="0.698039" d="M1349,-495C1424.12,-495 1388.38,-586.3 1448,-632 1451.34,-634.56 1454.92,-636.92 1458.65,-639.1"/>
<polygon fill="#079174" fill-opacity="0.698039" stroke="#079174" stroke-width="2" stroke-opacity="0.698039" points="1457.11,-642.24 1467.58,-643.85 1460.4,-636.07 1457.11,-642.24"/>
</g>
<!-- …/dex/rpc&#45;&gt;…/dex/internal/version -->
<g id="edge37" class="edge">
<title>…/dex/rpc:e&#45;&gt;…/dex/internal/version</title>
<path fill="none" stroke="#910745" stroke-width="2" stroke-opacity="0.698039" d="M1349,-495C1445.8,-495 1374.85,-625.6 1448,-689 1449.32,-690.14 1450.69,-691.24 1452.1,-692.29"/>
<polygon fill="#910745" fill-opacity="0.698039" stroke="#910745" stroke-width="2" stroke-opacity="0.698039" points="1450.3,-695.29 1460.6,-697.8 1454.12,-689.42 1450.3,-695.29"/>
</g>
<!-- rest -->
<g id="node14" class="node">
<title>rest</title>
<polygon fill="none" stroke="#079122" stroke-width="2" stroke-opacity="0.698039" points="1582,-197 1474,-197 1474,-161 1582,-161 1582,-197"/>
<text text-anchor="middle" x="1528" y="-176.5" font-family="Times,serif" font-size="10.00">REST module</text>
</g>
<!-- …/dex/rpc&#45;&gt;rest -->
<g id="edge1" class="edge">
<title>…/dex/rpc:e&#45;&gt;rest</title>
<path fill="none" stroke="black" stroke-width="2" stroke-dasharray="5,2" d="M1359.19,-494.6C1477.93,-484.89 1354.49,-299.44 1448,-206 1452.82,-201.18 1458.54,-197.22 1464.66,-193.97"/>
<polygon fill="black" stroke="black" stroke-width="2" points="1358.86,-491.11 1349,-495 1359.13,-498.11 1358.86,-491.11"/>
<polygon fill="black" stroke="black" stroke-width="2" points="1466.27,-197.08 1473.86,-189.69 1463.31,-190.73 1466.27,-197.08"/>
</g>
<!-- runner -->
<g id="node15" class="node">
<title>runner</title>
<polygon fill="none" stroke="#079122" stroke-width="2" stroke-opacity="0.698039" points="1582,-359 1474,-359 1474,-323 1582,-323 1582,-359"/>
<text text-anchor="middle" x="1528" y="-338.5" font-family="Times,serif" font-size="10.00">runner module</text>
</g>
<!-- …/dex/rpc&#45;&gt;runner -->
<g id="edge2" class="edge">
<title>…/dex/rpc:e&#45;&gt;runner</title>
<path fill="none" stroke="black" stroke-width="2" stroke-dasharray="5,2" d="M1359.01,-494.53C1430.95,-487.8 1486.86,-410.16 1512.18,-367.95"/>
<polygon fill="black" stroke="black" stroke-width="2" points="1358.83,-491.04 1349,-495 1359.15,-498.03 1358.83,-491.04"/>
<polygon fill="black" stroke="black" stroke-width="2" points="1515.23,-369.67 1517.26,-359.27 1509.19,-366.14 1515.23,-369.67"/>
</g>
<!-- worklog -->
<g id="node16" class="node">
<title>worklog</title>
<polygon fill="none" stroke="#079122" stroke-width="2" stroke-opacity="0.698039" points="1600,-305 1456,-305 1456,-269 1600,-269 1600,-305"/>
<text text-anchor="middle" x="1528" y="-284.5" font-family="Times,serif" font-size="10.00">work logging module</text>
</g>
<!-- …/dex/rpc&#45;&gt;worklog -->
<g id="edge3" class="edge">
<title>…/dex/rpc:e&#45;&gt;worklog</title>
<path fill="none" stroke="black" stroke-width="2" stroke-dasharray="5,2" d="M1359.05,-494.45C1435.99,-485.57 1380.6,-370.75 1448,-314 1449.37,-312.84 1450.8,-311.74 1452.26,-310.68"/>
<polygon fill="black" stroke="black" stroke-width="2" points="1358.79,-490.96 1349,-495 1359.18,-497.95 1358.79,-490.96"/>
<polygon fill="black" stroke="black" stroke-width="2" points="1454.51,-313.4 1461.09,-305.1 1450.77,-307.48 1454.51,-313.4"/>
</g>
<!-- watcher -->
<g id="node17" class="node">
<title>watcher</title>
<polygon fill="none" stroke="#079122" stroke-width="2" stroke-opacity="0.698039" points="1600,-251 1456,-251 1456,-215 1600,-215 1600,-251"/>
<text text-anchor="middle" x="1528" y="-230.5" font-family="Times,serif" font-size="10.00">window watcher module</text>
</g>
<!-- …/dex/rpc&#45;&gt;watcher -->
<g id="edge4" class="edge">
<title>…/dex/rpc:e&#45;&gt;watcher</title>
<path fill="none" stroke="black" stroke-width="2" stroke-dasharray="5,2" d="M1359.02,-494.55C1456.43,-485.22 1367.72,-334.9 1448,-260 1449.13,-258.95 1450.29,-257.94 1451.5,-256.97"/>
<polygon fill="black" stroke="black" stroke-width="2" points="1358.83,-491.05 1349,-495 1359.15,-498.04 1358.83,-491.05"/>
<polygon fill="black" stroke="black" stroke-width="2" points="1453.72,-259.69 1459.94,-251.11 1449.73,-253.94 1453.72,-259.69"/>
</g>
</g>
</svg>
