<?xml version="1.0" encoding="UTF-8" standalone="no"?>
<!DOCTYPE svg PUBLIC "-//W3C//DTD SVG 1.1//EN"
 "http://www.w3.org/Graphics/SVG/1.1/DTD/svg11.dtd">
<!-- Generated by graphviz version 2.43.0 (0)
 -->
<!-- Title: G Pages: 1 -->
<svg width="1854pt" height="423pt"
 viewBox="0.00 0.00 1854.00 423.00" xmlns="http://www.w3.org/2000/svg" xmlns:xlink="http://www.w3.org/1999/xlink">
<g id="graph0" class="graph" transform="scale(1 1) rotate(0) translate(4 419)">
<title>G</title>
<polygon fill="white" stroke="transparent" points="-4,4 -4,-419 1850,-419 1850,4 -4,4"/>
<g id="clust1" class="cluster">
<title>cluster_B</title>
<path fill="none" stroke="black" d="M20,-63C20,-63 120,-63 120,-63 126,-63 132,-69 132,-75 132,-75 132,-126 132,-126 132,-132 126,-138 120,-138 120,-138 20,-138 20,-138 14,-138 8,-132 8,-126 8,-126 8,-75 8,-75 8,-69 14,-63 20,-63"/>
<text text-anchor="middle" x="70" y="-122.8" font-family="Times,serif" font-size="14.00">Builder</text>
</g>
<g id="clust2" class="cluster">
<title>cluster_D</title>
<path fill="none" stroke="black" d="M265,-8C265,-8 1826,-8 1826,-8 1832,-8 1838,-14 1838,-20 1838,-20 1838,-395 1838,-395 1838,-401 1832,-407 1826,-407 1826,-407 265,-407 265,-407 259,-407 253,-401 253,-395 253,-395 253,-20 253,-20 253,-14 259,-8 265,-8"/>
<text text-anchor="middle" x="1045.5" y="-391.8" font-family="Times,serif" font-size="14.00">Application</text>
</g>
<g id="clust3" class="cluster">
<title>cluster_C</title>
<path fill="none" stroke="black" d="M273,-16C273,-16 1475,-16 1475,-16 1481,-16 1487,-22 1487,-28 1487,-28 1487,-153 1487,-153 1487,-159 1481,-165 1475,-165 1475,-165 273,-165 273,-165 267,-165 261,-159 261,-153 261,-153 261,-28 261,-28 261,-22 267,-16 273,-16"/>
<text text-anchor="middle" x="874" y="-149.8" font-family="Times,serif" font-size="14.00">Controller</text>
</g>
<g id="clust4" class="cluster">
<title>cluster_P</title>
<path fill="none" stroke="black" d="M1032,-173C1032,-173 1818,-173 1818,-173 1824,-173 1830,-179 1830,-185 1830,-185 1830,-364 1830,-364 1830,-370 1824,-376 1818,-376 1818,-376 1032,-376 1032,-376 1026,-376 1020,-370 1020,-364 1020,-364 1020,-185 1020,-185 1020,-179 1026,-173 1032,-173"/>
<text text-anchor="middle" x="1425" y="-360.8" font-family="Times,serif" font-size="14.00">Plugin Features</text>
</g>
<!-- …/dex/minidex/plugins -->
<g id="node1" class="node">
<title>…/dex/minidex/plugins</title>
<g id="a_node1"><a xlink:href="https://pkg.go.dev/…/dex/minidex/plugins" xlink:title="…/dex/minidex/plugins\l794 / 20.4KB\l" target="_graphviz">
<polygon fill="none" stroke="#074191" stroke-width="2" stroke-opacity="0.698039" points="666,-80 522,-80 522,-44 666,-44 666,-80"/>
<text text-anchor="start" x="530" y="-65" font-family="Times,serif" font-size="10.00">…/dex/minidex/plugins</text>
<text text-anchor="start" x="530" y="-54" font-family="Times,serif" font-size="10.00">794 / 20.4KB</text>
</a>
</g>
</g>
<!-- …/dex/internal/device -->
<g id="node6" class="node">
<title>…/dex/internal/device</title>
<g id="a_node6"><a xlink:href="https://pkg.go.dev/…/dex/internal/device" xlink:title="…/dex/internal/device\l2414 / 70.7KB\l" target="_graphviz">
<polygon fill="none" stroke="#910717" stroke-width="2" stroke-opacity="0.698039" points="919,-80 775,-80 775,-44 919,-44 919,-80"/>
<text text-anchor="start" x="783" y="-65" font-family="Times,serif" font-size="10.00">…/dex/internal/device</text>
<text text-anchor="start" x="783" y="-54" font-family="Times,serif" font-size="10.00">2414 / 70.7KB</text>
</a>
</g>
</g>
<!-- …/dex/minidex/plugins&#45;&gt;…/dex/internal/device -->
<g id="edge8" class="edge">
<title>…/dex/minidex/plugins:e&#45;&gt;…/dex/internal/device</title>
<path fill="none" stroke="#910717" stroke-width="2" stroke-opacity="0.698039" d="M666,-62C698.15,-62 733.52,-62 764.34,-62"/>
<polygon fill="#910717" fill-opacity="0.698039" stroke="#910717" stroke-width="2" stroke-opacity="0.698039" points="764.61,-65.5 774.61,-62 764.61,-58.5 764.61,-65.5"/>
</g>
<!-- …/dex/internal/state -->
<g id="node7" class="node">
<title>…/dex/internal/state</title>
<g id="a_node7"><a xlink:href="https://pkg.go.dev/…/dex/internal/state" xlink:title="…/dex/internal/state\l487 / 13.8KB\l" target="_graphviz">
<polygon fill="none" stroke="#916907" stroke-width="2" stroke-opacity="0.698039" points="919,-134 775,-134 775,-98 919,-98 919,-134"/>
<text text-anchor="start" x="783" y="-119" font-family="Times,serif" font-size="10.00">…/dex/internal/state</text>
<text text-anchor="start" x="783" y="-108" font-family="Times,serif" font-size="10.00">487 / 13.8KB</text>
</a>
</g>
</g>
<!-- …/dex/minidex/plugins&#45;&gt;…/dex/internal/state -->
<g id="edge9" class="edge">
<title>…/dex/minidex/plugins:e&#45;&gt;…/dex/internal/state</title>
<path fill="none" stroke="#916907" stroke-width="2" stroke-opacity="0.698039" d="M666,-62C689.73,-62 744.63,-79.44 787.61,-94.5"/>
<polygon fill="#916907" fill-opacity="0.698039" stroke="#916907" stroke-width="2" stroke-opacity="0.698039" points="786.54,-97.84 797.13,-97.87 788.87,-91.24 786.54,-97.84"/>
</g>
<!-- …/dex/minidex -->
<g id="node2" class="node">
<title>…/dex/minidex</title>
<g id="a_node2"><a xlink:href="https://pkg.go.dev/…/dex/minidex" xlink:title="…/dex/minidex\l50 / 1.3KB\l" target="_graphviz">
<polygon fill="none" stroke="#270791" stroke-width="2" stroke-opacity="0.698039" points="124,-107 16,-107 16,-71 124,-71 124,-107"/>
<text text-anchor="start" x="24" y="-92" font-family="Times,serif" font-size="10.00">…/dex/minidex</text>
<text text-anchor="start" x="24" y="-81" font-family="Times,serif" font-size="10.00">50 / 1.3KB</text>
</a>
</g>
</g>
<!-- …/dex/minidex/dex -->
<g id="node3" class="node">
<title>…/dex/minidex/dex</title>
<g id="a_node3"><a xlink:href="https://pkg.go.dev/…/dex/minidex/dex" xlink:title="…/dex/minidex/dex\l135 / 3.6KB\l" target="_graphviz">
<polygon fill="none" stroke="#910757" stroke-width="2" stroke-opacity="0.698039" points="413,-107 269,-107 269,-71 413,-71 413,-107"/>
<text text-anchor="start" x="277" y="-92" font-family="Times,serif" font-size="10.00">…/dex/minidex/dex</text>
<text text-anchor="start" x="277" y="-81" font-family="Times,serif" font-size="10.00">135 / 3.6KB</text>
</a>
</g>
</g>
<!-- …/dex/minidex&#45;&gt;…/dex/minidex/dex -->
<g id="edge1" class="edge">
<title>…/dex/minidex:e&#45;&gt;…/dex/minidex/dex</title>
<path fill="none" stroke="#074191" stroke-width="2" stroke-dasharray="5,2" stroke-opacity="0.698039" d="M125,-89C169.22,-89 218.55,-89 258.8,-89"/>
<polygon fill="#074191" fill-opacity="0.698039" stroke="#074191" stroke-width="2" stroke-opacity="0.698039" points="258.82,-92.5 268.82,-89 258.82,-85.5 258.82,-92.5"/>
<text text-anchor="middle" x="196.5" y="-92.8" font-family="Times,serif" font-size="14.00">build</text>
</g>
<!-- …/dex/minidex/dex&#45;&gt;…/dex/minidex/plugins -->
<g id="edge2" class="edge">
<title>…/dex/minidex/dex:e&#45;&gt;…/dex/minidex/plugins</title>
<path fill="none" stroke="#074191" stroke-width="2" stroke-opacity="0.698039" d="M413,-89C445.51,-89 480.95,-84.64 511.73,-79.42"/>
<polygon fill="#074191" fill-opacity="0.698039" stroke="#074191" stroke-width="2" stroke-opacity="0.698039" points="512.73,-82.8 521.98,-77.63 511.52,-75.91 512.73,-82.8"/>
</g>
<!-- …/dex/internal/xdg -->
<g id="node4" class="node">
<title>…/dex/internal/xdg</title>
<g id="a_node4"><a xlink:href="https://pkg.go.dev/…/dex/internal/xdg" xlink:title="…/dex/internal/xdg\l155 / 5.5KB\l" target="_graphviz">
<polygon fill="none" stroke="#3f9107" stroke-width="2" stroke-opacity="0.698039" points="666,-134 522,-134 522,-98 666,-98 666,-134"/>
<text text-anchor="start" x="530" y="-119" font-family="Times,serif" font-size="10.00">…/dex/internal/xdg</text>
<text text-anchor="start" x="530" y="-108" font-family="Times,serif" font-size="10.00">155 / 5.5KB</text>
</a>
</g>
</g>
<!-- …/dex/minidex/dex&#45;&gt;…/dex/internal/xdg -->
<g id="edge3" class="edge">
<title>…/dex/minidex/dex:e&#45;&gt;…/dex/internal/xdg</title>
<path fill="none" stroke="#074191" stroke-width="2" stroke-opacity="0.698039" d="M413,-89C445.51,-89 480.95,-93.36 511.73,-98.58"/>
<polygon fill="#074191" fill-opacity="0.698039" stroke="#074191" stroke-width="2" stroke-opacity="0.698039" points="511.52,-102.09 521.98,-100.37 512.73,-95.2 511.52,-102.09"/>
</g>
<!-- …/ardilla -->
<g id="node5" class="node">
<title>…/ardilla</title>
<g id="a_node5"><a xlink:href="https://pkg.go.dev/…/ardilla" xlink:title="…/ardilla\l654 / 17.1KB\l" target="_graphviz">
<polygon fill="none" stroke="#079190" stroke-width="2" stroke-opacity="0.698039" points="1172,-60 1064,-60 1064,-24 1172,-24 1172,-60"/>
<text text-anchor="start" x="1072" y="-45" font-family="Times,serif" font-size="10.00">…/ardilla</text>
<text text-anchor="start" x="1072" y="-34" font-family="Times,serif" font-size="10.00">654 / 17.1KB</text>
</a>
</g>
</g>
<!-- golang.org/x/image/bmp -->
<g id="node8" class="node">
<title>golang.org/x/image/bmp</title>
<g id="a_node8"><a xlink:href="https://pkg.go.dev/golang.org/x/image/bmp" xlink:title="golang.org/x/image/bmp\l489 / 14.3KB\l" target="_graphviz">
<polygon fill="none" stroke="#918a07" stroke-width="2" stroke-opacity="0.698039" points="1479,-79 1335,-79 1335,-43 1479,-43 1479,-79"/>
<text text-anchor="start" x="1343" y="-64" font-family="Times,serif" font-size="10.00">golang.org/x/image/bmp</text>
<text text-anchor="start" x="1343" y="-53" font-family="Times,serif" font-size="10.00">489 / 14.3KB</text>
</a>
</g>
</g>
<!-- …/ardilla&#45;&gt;golang.org/x/image/bmp -->
<g id="edge4" class="edge">
<title>…/ardilla:e&#45;&gt;golang.org/x/image/bmp</title>
<path fill="none" stroke="#918a07" stroke-width="2" stroke-opacity="0.698039" d="M1173,-42C1223.55,-42 1280.06,-46.5 1324.77,-51.12"/>
<polygon fill="#918a07" fill-opacity="0.698039" stroke="#918a07" stroke-width="2" stroke-opacity="0.698039" points="1324.69,-54.63 1335,-52.2 1325.42,-47.66 1324.69,-54.63"/>
</g>
<!-- …/dex/internal/device&#45;&gt;…/ardilla -->
<g id="edge5" class="edge">
<title>…/dex/internal/device:e&#45;&gt;…/ardilla</title>
<path fill="none" stroke="#079190" stroke-width="2" stroke-opacity="0.698039" d="M919,-62C964.19,-62 1014.9,-56.78 1053.68,-51.67"/>
<polygon fill="#079190" fill-opacity="0.698039" stroke="#079190" stroke-width="2" stroke-opacity="0.698039" points="1054.34,-55.11 1063.78,-50.31 1053.41,-48.18 1054.34,-55.11"/>
</g>
<!-- …/dex/internal/device&#45;&gt;golang.org/x/image/bmp -->
<g id="edge6" class="edge">
<title>…/dex/internal/device:e&#45;&gt;golang.org/x/image/bmp</title>
<path fill="none" stroke="#918a07" stroke-width="2" stroke-opacity="0.698039" d="M919,-62C964,-62 975.03,-67.44 1020,-69 1103.51,-71.89 1124.46,-70.69 1208,-69 1246.35,-68.23 1288.85,-66.61 1324.62,-65.03"/>
<polygon fill="#918a07" fill-opacity="0.698039" stroke="#918a07" stroke-width="2" stroke-opacity="0.698039" points="1325.17,-68.51 1335,-64.56 1324.85,-61.52 1325.17,-68.51"/>
</g>
<!-- golang.org/x/image/tiff -->
<g id="node9" class="node">
<title>golang.org/x/image/tiff</title>
<g id="a_node9"><a xlink:href="https://pkg.go.dev/golang.org/x/image/tiff" xlink:title="golang.org/x/image/tiff\l1381 / 37.5KB\l" target="_graphviz">
<polygon fill="none" stroke="#910b07" stroke-width="2" stroke-opacity="0.698039" points="1190,-134 1046,-134 1046,-98 1190,-98 1190,-134"/>
<text text-anchor="start" x="1054" y="-119" font-family="Times,serif" font-size="10.00">golang.org/x/image/tiff</text>
<text text-anchor="start" x="1054" y="-108" font-family="Times,serif" font-size="10.00">1381 / 37.5KB</text>
</a>
</g>
</g>
<!-- …/dex/internal/device&#45;&gt;golang.org/x/image/tiff -->
<g id="edge7" class="edge">
<title>…/dex/internal/device:e&#45;&gt;golang.org/x/image/tiff</title>
<path fill="none" stroke="#910b07" stroke-width="2" stroke-opacity="0.698039" d="M919,-62C944.92,-62 948.26,-76.27 973,-84 993.06,-90.27 1015.06,-95.8 1035.69,-100.44"/>
<polygon fill="#910b07" fill-opacity="0.698039" stroke="#910b07" stroke-width="2" stroke-opacity="0.698039" points="1035.18,-103.91 1045.7,-102.64 1036.68,-97.07 1035.18,-103.91"/>
</g>
<!-- …/dex/internal/animation -->
<g id="node10" class="node">
<title>…/dex/internal/animation</title>
<g id="a_node10"><a xlink:href="https://pkg.go.dev/…/dex/internal/animation" xlink:title="…/dex/internal/animation\l564 / 15.4KB\l" target="_graphviz">
<polygon fill="none" stroke="#079165" stroke-width="2" stroke-opacity="0.698039" points="1208,-217 1028,-217 1028,-181 1208,-181 1208,-217"/>
<text text-anchor="start" x="1036" y="-202" font-family="Times,serif" font-size="10.00">…/dex/internal/animation</text>
<text text-anchor="start" x="1036" y="-191" font-family="Times,serif" font-size="10.00">564 / 15.4KB</text>
</a>
</g>
</g>
<!-- …/dex/internal/device&#45;&gt;…/dex/internal/animation -->
<g id="edge13" class="edge">
<title>…/dex/internal/device:e&#45;&gt;…/dex/internal/animation</title>
<path fill="none" stroke="#079165" stroke-width="2" stroke-opacity="0.698039" d="M919,-62C969.51,-62 933.21,-130.89 973,-162 986.26,-172.37 1002.11,-179.85 1018.36,-185.25"/>
<polygon fill="#079165" fill-opacity="0.698039" stroke="#079165" stroke-width="2" stroke-opacity="0.698039" points="1017.38,-188.61 1027.96,-188.2 1019.43,-181.92 1017.38,-188.61"/>
</g>
<!-- …/dex/internal/text -->
<g id="node11" class="node">
<title>…/dex/internal/text</title>
<g id="a_node11"><a xlink:href="https://pkg.go.dev/…/dex/internal/text" xlink:title="…/dex/internal/text\l193 / 5.2KB\l" target="_graphviz">
<polygon fill="none" stroke="#912207" stroke-width="2" stroke-opacity="0.698039" points="1479,-217 1335,-217 1335,-181 1479,-181 1479,-217"/>
<text text-anchor="start" x="1343" y="-202" font-family="Times,serif" font-size="10.00">…/dex/internal/text</text>
<text text-anchor="start" x="1343" y="-191" font-family="Times,serif" font-size="10.00">193 / 5.2KB</text>
</a>
</g>
</g>
<!-- …/dex/internal/device&#45;&gt;…/dex/internal/text -->
<g id="edge14" class="edge">
<title>…/dex/internal/device:e&#45;&gt;…/dex/internal/text</title>
<path fill="none" stroke="#912207" stroke-width="2" stroke-opacity="0.698039" d="M919,-62C976.54,-62 967.23,-120.06 1020,-143 1026.95,-146.02 1213.22,-172.24 1324.42,-187.71"/>
<polygon fill="#912207" fill-opacity="0.698039" stroke="#912207" stroke-width="2" stroke-opacity="0.698039" points="1324.22,-191.21 1334.61,-189.13 1325.19,-184.28 1324.22,-191.21"/>
</g>
<!-- …/dex/rpc -->
<g id="node12" class="node">
<title>…/dex/rpc</title>
<g id="a_node12"><a xlink:href="https://pkg.go.dev/…/dex/rpc" xlink:title="…/dex/rpc\l986 / 31.3KB\l" target="_graphviz">
<polygon fill="none" stroke="#079109" stroke-width="2" stroke-opacity="0.698039" points="1172,-271 1064,-271 1064,-235 1172,-235 1172,-271"/>
<text text-anchor="start" x="1072" y="-256" font-family="Times,serif" font-size="10.00">…/dex/rpc</text>
<text text-anchor="start" x="1072" y="-245" font-family="Times,serif" font-size="10.00">986 / 31.3KB</text>
</a>
</g>
</g>
<!-- …/dex/internal/device&#45;&gt;…/dex/rpc -->
<g id="edge15" class="edge">
<title>…/dex/internal/device:e&#45;&gt;…/dex/rpc</title>
<path fill="none" stroke="#079109" stroke-width="2" stroke-opacity="0.698039" d="M919,-62C971.48,-62 944.51,-122.93 973,-167 991.2,-195.16 992.05,-207.49 1020,-226 1030.19,-232.75 1042.05,-237.82 1053.91,-241.64"/>
<polygon fill="#079109" fill-opacity="0.698039" stroke="#079109" stroke-width="2" stroke-opacity="0.698039" points="1053.25,-245.09 1063.83,-244.55 1055.23,-238.38 1053.25,-245.09"/>
</g>
<!-- golang.org/x/image/draw -->
<g id="node13" class="node">
<title>golang.org/x/image/draw</title>
<g id="a_node13"><a xlink:href="https://pkg.go.dev/golang.org/x/image/draw" xlink:title="golang.org/x/image/draw\l8466 / 280.9KB\l" target="_graphviz">
<polygon fill="none" stroke="#916f07" stroke-width="2" stroke-opacity="0.698039" points="1479,-291 1335,-291 1335,-255 1479,-255 1479,-291"/>
<text text-anchor="start" x="1343" y="-276" font-family="Times,serif" font-size="10.00">golang.org/x/image/draw</text>
<text text-anchor="start" x="1343" y="-265" font-family="Times,serif" font-size="10.00">8466 / 280.9KB</text>
</a>
</g>
</g>
<!-- …/dex/internal/device&#45;&gt;golang.org/x/image/draw -->
<g id="edge16" class="edge">
<title>…/dex/internal/device:e&#45;&gt;golang.org/x/image/draw</title>
<path fill="none" stroke="#916f07" stroke-width="2" stroke-opacity="0.698039" d="M919,-62C932.35,-62 1008.75,-272.81 1020,-280 1068.62,-311.06 1226.41,-297.18 1324.56,-284.76"/>
<polygon fill="#916f07" fill-opacity="0.698039" stroke="#916f07" stroke-width="2" stroke-opacity="0.698039" points="1325.27,-288.19 1334.74,-283.44 1324.38,-281.25 1325.27,-288.19"/>
</g>
<!-- golang.org/x/image/font/basicfont -->
<g id="node14" class="node">
<title>golang.org/x/image/font/basicfont</title>
<g id="a_node14"><a xlink:href="https://pkg.go.dev/golang.org/x/image/font/basicfont" xlink:title="golang.org/x/image/font/basicfont\l1479 / 51.9KB\l" target="_graphviz">
<polygon fill="none" stroke="#910768" stroke-width="2" stroke-opacity="0.698039" points="1822,-254 1606,-254 1606,-218 1822,-218 1822,-254"/>
<text text-anchor="start" x="1614" y="-239" font-family="Times,serif" font-size="10.00">golang.org/x/image/font/basicfont</text>
<text text-anchor="start" x="1614" y="-228" font-family="Times,serif" font-size="10.00">1479 / 51.9KB</text>
</a>
</g>
</g>
<!-- …/dex/internal/device&#45;&gt;golang.org/x/image/font/basicfont -->
<g id="edge17" class="edge">
<title>…/dex/internal/device:e&#45;&gt;golang.org/x/image/font/basicfont</title>
<path fill="none" stroke="#910768" stroke-width="2" stroke-opacity="0.698039" d="M919,-62C926.03,-62 1014.53,-289.58 1020,-294 1124.73,-378.65 1183,-340.6 1317,-354 1396.6,-361.96 1419.49,-373.79 1497,-354 1567.97,-335.88 1640.75,-289.12 1681.09,-260.2"/>
<polygon fill="#910768" fill-opacity="0.698039" stroke="#910768" stroke-width="2" stroke-opacity="0.698039" points="1683.4,-262.84 1689.43,-254.14 1679.28,-257.18 1683.4,-262.84"/>
</g>
<!-- …/dex/internal/state&#45;&gt;…/dex/rpc -->
<g id="edge18" class="edge">
<title>…/dex/internal/state:e&#45;&gt;…/dex/rpc</title>
<path fill="none" stroke="#079109" stroke-width="2" stroke-opacity="0.698039" d="M919,-116C973.06,-116 930.01,-192.22 973,-225 995.81,-242.39 1026.41,-249.9 1053.55,-252.85"/>
<polygon fill="#079109" fill-opacity="0.698039" stroke="#079109" stroke-width="2" stroke-opacity="0.698039" points="1053.48,-256.36 1063.75,-253.78 1054.1,-249.39 1053.48,-256.36"/>
</g>
<!-- …/dex/internal/animation&#45;&gt;…/dex/internal/text -->
<g id="edge10" class="edge">
<title>…/dex/internal/animation:e&#45;&gt;…/dex/internal/text</title>
<path fill="none" stroke="#912207" stroke-width="2" stroke-opacity="0.698039" d="M1208,-199C1246.33,-199 1288.83,-199 1324.59,-199"/>
<polygon fill="#912207" fill-opacity="0.698039" stroke="#912207" stroke-width="2" stroke-opacity="0.698039" points="1324.98,-202.5 1334.98,-199 1324.98,-195.5 1324.98,-202.5"/>
</g>
<!-- …/dex/internal/animation&#45;&gt;golang.org/x/image/draw -->
<g id="edge11" class="edge">
<title>…/dex/internal/animation:e&#45;&gt;golang.org/x/image/draw</title>
<path fill="none" stroke="#916f07" stroke-width="2" stroke-opacity="0.698039" d="M1208,-199C1238.4,-199 1234.49,-228.05 1262,-241 1281.5,-250.18 1303.75,-256.78 1324.82,-261.51"/>
<polygon fill="#916f07" fill-opacity="0.698039" stroke="#916f07" stroke-width="2" stroke-opacity="0.698039" points="1324.23,-264.96 1334.73,-263.62 1325.68,-258.11 1324.23,-264.96"/>
</g>
<!-- …/dex/internal/animation&#45;&gt;golang.org/x/image/font/basicfont -->
<g id="edge12" class="edge">
<title>…/dex/internal/animation:e&#45;&gt;golang.org/x/image/font/basicfont</title>
<path fill="none" stroke="#910768" stroke-width="2" stroke-opacity="0.698039" d="M1208,-199C1257.91,-199 1267.54,-219.33 1317,-226 1409.95,-238.53 1516.25,-240.55 1595.29,-239.7"/>
<polygon fill="#910768" fill-opacity="0.698039" stroke="#910768" stroke-width="2" stroke-opacity="0.698039" points="1595.82,-243.19 1605.77,-239.57 1595.73,-236.19 1595.82,-243.19"/>
</g>
<!-- …/dex/internal/text&#45;&gt;golang.org/x/image/font/basicfont -->
<g id="edge19" class="edge">
<title>…/dex/internal/text:e&#45;&gt;golang.org/x/image/font/basicfont</title>
<path fill="none" stroke="#910768" stroke-width="2" stroke-opacity="0.698039" d="M1480,-199C1529.49,-199 1584.18,-207.24 1628.12,-215.95"/>
<polygon fill="#910768" fill-opacity="0.698039" stroke="#910768" stroke-width="2" stroke-opacity="0.698039" points="1627.69,-219.43 1638.19,-217.99 1629.08,-212.57 1627.69,-219.43"/>
</g>
<!-- golang.org/x/sys/execabs -->
<g id="node15" class="node">
<title>golang.org/x/sys/execabs</title>
<g id="a_node15"><a xlink:href="https://pkg.go.dev/golang.org/x/sys/execabs" xlink:title="golang.org/x/sys/execabs\l105 / 4.0KB\l" target="_graphviz">
<polygon fill="none" stroke="#079174" stroke-width="2" stroke-opacity="0.698039" points="1497,-345 1317,-345 1317,-309 1497,-309 1497,-345"/>
<text text-anchor="start" x="1325" y="-330" font-family="Times,serif" font-size="10.00">golang.org/x/sys/execabs</text>
<text text-anchor="start" x="1325" y="-319" font-family="Times,serif" font-size="10.00">105 / 4.0KB</text>
</a>
</g>
</g>
<!-- …/dex/rpc&#45;&gt;golang.org/x/sys/execabs -->
<g id="edge20" class="edge">
<title>…/dex/rpc:e&#45;&gt;golang.org/x/sys/execabs</title>
<path fill="none" stroke="#079174" stroke-width="2" stroke-opacity="0.698039" d="M1173,-253C1240.32,-253 1252.78,-279.78 1317,-300 1323.06,-301.91 1329.37,-303.87 1335.7,-305.82"/>
<polygon fill="#079174" fill-opacity="0.698039" stroke="#079174" stroke-width="2" stroke-opacity="0.698039" points="1335.04,-309.28 1345.63,-308.87 1337.09,-302.59 1335.04,-309.28"/>
</g>
</g>
</svg>
